<?xml version="1.0"?>
<!DOCTYPE svg PUBLIC "-//W3C//DTD SVG 1.1//EN" "http://www.w3.org/Graphics/SVG/1.1/DTD/svg11.dtd">
<svg width="234.744760437mm" height="167.517097248mm" viewBox="0 0 234.744760437 167.517097248" xmlns="http://www.w3.org/2000/svg" version="1.1">
<g id="DWire" transform="translate(117.301419,82.215678) scale(1,-1)">
<path id="DWire_w0000" d="M 65.0539855957 62.9610328674 L 74.0 63.0 L 74.0 36.0 L 86.0 36.0 L 86.0 63.0 L 95.0 63.0 L 95.0 68.0 L 65.0 68.0 L 65.0539855957 62.9610328674 " stroke="#000000" stroke-width="0.35 px" style="stroke-width:0.35;stroke-miterlimit:4;stroke-dasharray:none;fill:none;fill-rule: evenodd "/>
<title>Bracket Line NE</title>
</g>
<g id="Wire" transform="translate(117.301419,82.215678) scale(1,-1)">
<path id="Wire_w0000" d="M -95.0 63.0 L -86.0 63.0 L -86.0 36.0 L -74.0 36.0 L -74.0 63.0 L -65.0166778564 62.9558868408 L -65.0 68.0 L -95.0 68.0 L -95.0 63.0 " stroke="#191919" stroke-width="0.35 px" style="stroke-width:0.35;stroke-miterlimit:4;stroke-dasharray:none;fill:none;fill-rule: evenodd "/>
<title>Wire</title>
</g>
<g id="Circle009" transform="translate(117.301419,82.215678) scale(1,-1)">
<circle cx="85.141921997" cy="0.0" r="30.0" stroke="#2c7dff" stroke-width="0.35 px" style="stroke-width:0.35;stroke-miterlimit:4;stroke-dasharray:none;fill:none"/>
<title>Rim001</title>
</g>
<g id="Circle008" transform="translate(117.301419,82.215678) scale(1,-1)">
<circle cx="-85.0" cy="0.0" r="30.0" stroke="#2c7dff" stroke-width="0.35 px" style="stroke-width:0.35;stroke-miterlimit:4;stroke-dasharray:none;fill:none"/>
<title>Rim</title>
</g>
<g id="Line" transform="translate(117.301419,82.215678) scale(1,-1)">
<path id="Line_w0000" d="M -50.0 70.0 L -50.0 -70.0 " stroke="#000000" stroke-width="0.35 px" style="stroke-width:0.35;stroke-miterlimit:4;stroke-dasharray:none;fill:none;fill-rule: evenodd "/>
<title>Line Left</title>
</g>
<g id="Line001" transform="translate(117.301419,82.215678) scale(1,-1)">
<path id="Line001_w0000" d="M 50.0 70.0 L 50.0 -70.0 " stroke="#000000" stroke-width="0.35 px" style="stroke-width:0.35;stroke-miterlimit:4;stroke-dasharray:none;fill:none;fill-rule: evenodd "/>
<title>Line Right</title>
</g>
<g id="BSpline" transform="translate(117.301419,82.215678) scale(1,-1)">
<path id="BSpline_nwe0000" d="M -50.0 70.0 Q 0.0 90.0 50.0 70.0 " stroke="#000000" stroke-width="0.35 px" style="stroke-width:0.35;stroke-miterlimit:4;stroke-dasharray:none;fill:none;fill-rule: evenodd "/>
<title>BSpline Top</title>
</g>
<g id="BSpline001" transform="translate(117.301419,82.215678) scale(1,-1)">
<path id="BSpline001_nwe0000" d="M -50.0 -70.0 Q 0.0 -90.0 50.0 -70.0 " stroke="#191919" stroke-width="0.35 px" style="stroke-width:0.35;stroke-miterlimit:4;stroke-dasharray:none;fill:none;fill-rule: evenodd "/>
<title>BSpline Bottom</title>
</g>
<g id="DWire003" transform="translate(117.301419,82.215678) scale(1,-1)">
<path id="DWire003_w0000" d="M 75.0 -78.0 L 66.0 -78.0 L 66.0 -51.0 L 54.0 -51.0 L 54.0 -78.0 L 45.0 -78.0 L 45.0 -83.0 L 75.0 -83.0 L 75.0 -78.0 " stroke="#000000" stroke-width="0.35 px" style="stroke-width:0.35;stroke-miterlimit:4;stroke-dasharray:none;fill:none;fill-rule: evenodd "/>
<title>Bracket Line SE</title>
</g>
<g id="DWire002" transform="translate(117.301419,82.215678) scale(1,-1)">
<path id="DWire002_w0000" d="M -45.0 -78.0 L -54.0 -78.0 L -54.0 -51.0 L -66.0 -51.0 L -66.0 -78.0 L -75.0 -78.0 L -75.0 -83.0 L -45.0 -83.0 L -45.0 -78.0 " stroke="#000000" stroke-width="0.35 px" style="stroke-width:0.35;stroke-miterlimit:4;stroke-dasharray:none;fill:none;fill-rule: evenodd "/>
<title>Bracket Line SW</title>
</g>
</svg>